<svg width="1440" height="157" viewBox="0 0 1440 157" fill="none" xmlns="http://www.w3.org/2000/svg">
<path d="M1242.3 0C1233.27 0 1225.96 7.31256 1225.96 16.3469C1225.96 25.3813 1233.27 32.6938 1242.3 32.6938C1251.32 32.6938 1258.63 25.3813 1258.63 16.3469C1258.63 7.31256 1251.32 0 1242.3 0Z" fill="#122130"/>
<path d="M1307.3 39.581C1307.3 39.581 1305.46 27.7513 1315.32 27.7513H1330.72V3.07897H1315.32C1277.73 3.07897 1280.2 39.581 1280.2 39.581H1262.33V64.861H1280.2V133.834H1307.32V64.861H1325.19L1331.89 39.581H1307.3Z" fill="#122130"/>
<path d="M1256.16 39.581H1228.43V133.834H1256.16V39.581Z" fill="#122130"/>
<path d="M1218.56 3.07897H1190.83V133.834H1218.56V3.07897Z" fill="#122130"/>
<path d="M960.37 25.28H933.877V85.7251C933.877 102.376 925.256 111.005 909.227 111.005C894.432 111.005 885.81 101.748 885.81 85.7251V25.28H858.69V85.7251C858.69 118.419 877.168 136.913 909.227 136.913C941.285 136.913 960.37 118.419 960.37 85.7251V25.28Z" fill="#122130"/>
<path d="M813.72 40.0874L809.915 25.28H786.62V133.834H813.74V76.4679C813.74 45.6377 848.247 53.639 848.247 53.639V25.2597C823.596 25.2597 813.74 40.0672 813.74 40.0672L813.72 40.0874Z" fill="#122130"/>
<path d="M772.433 49.9523L778.889 25.28H752.093V3.07897H733.615C733.615 19.7297 719.448 30.8303 705.888 31.4582V49.9523H724.366V100.533C724.366 122.126 737.298 133.834 759.48 133.834H776.116V109.162H759.48C754.542 109.162 752.093 106.691 752.093 100.533V49.9523H772.433Z" fill="#122130"/>
<path d="M653.49 48.7167C671.36 48.7167 676.299 62.8961 676.299 62.8961H706.495C706.495 62.8961 696.638 22.1808 653.51 22.1808C617.161 22.1808 598.663 51.1677 598.663 79.5469C598.663 117.163 626.39 136.913 653.51 136.913C697.873 136.913 706.495 94.9823 706.495 94.9823H676.299C676.299 94.9823 671.988 110.397 653.49 110.397C636.853 110.397 626.997 98.6892 626.997 79.5672C626.997 60.4451 636.853 48.7369 653.49 48.7369V48.7167Z" fill="#122130"/>
<path d="M537.764 22.201C510.644 22.201 482.917 41.9308 482.917 79.5672C482.917 117.204 510.644 136.933 538.371 136.933C578.424 136.933 590.749 103.632 590.749 103.632H558.711C558.711 103.632 554.401 111.653 538.371 111.653C513.113 111.653 510.017 88.2167 510.017 88.2167H592.591V79.5874C592.591 41.9713 564.864 22.2213 537.744 22.2213L537.764 22.201ZM510.644 68.4464C510.644 68.4464 514.409 45.6174 537.764 45.6174C561.12 45.6174 563.022 68.4464 563.022 68.4464H510.644Z" fill="#122130"/>
<path d="M425.743 22.201C400.485 22.201 390.001 37.6162 390.001 37.6162L386.56 25.28H362.881V156.238H390.608V122.126C390.608 122.126 401.072 136.913 425.722 136.913C458.995 136.913 476.866 107.926 476.866 79.5469C476.866 40.0672 450.353 22.1808 425.722 22.1808L425.743 22.201ZM418.963 110.397C401.092 110.397 390.608 98.669 390.608 79.5672C390.608 60.4654 401.072 48.7369 418.963 48.7369C436.854 48.7369 447.924 60.4654 447.924 79.5672C447.924 98.669 437.461 110.397 418.963 110.397Z" fill="#122130"/>
<path d="M320.987 67.8387C309.269 65.3674 301.881 63.5241 301.881 56.1305C301.881 50.5803 306.192 47.5013 313.579 47.5013C324.67 47.5013 325.905 55.5228 325.905 55.5228H354.259C354.259 55.5228 351.79 22.2213 313.579 22.2213C290.163 22.2213 272.899 37.6364 272.899 57.3661C272.899 83.8818 292.612 87.5887 308.641 90.6677C320.339 93.139 327.747 94.9823 327.747 103.004C327.747 108.554 323.436 112.261 315.421 112.261C301.861 112.261 300.627 101.161 300.627 101.161H272.272C272.272 101.161 274.114 136.933 315.401 136.933C338.817 136.933 356.688 121.518 356.688 101.788C356.688 74.6449 336.975 70.9582 320.946 67.859L320.987 67.8387Z" fill="#122130"/>
<path d="M1071.3 46.8733L1055.9 106.083C1054.06 113.476 1044.81 112.869 1044.81 103.612V55.5026C1044.81 16.6508 991.821 9.23692 981.944 46.8733L959.135 133.834H986.862L1007.81 53.6592C1009.65 47.5013 1018.9 48.7167 1018.29 55.5026V103.612C1018.29 143.091 1071.91 149.877 1081.76 112.241L1096.56 53.6592C1098.4 48.109 1107.65 48.109 1107.65 55.5026V133.834H1134.14V55.5026C1134.14 16.6508 1080.53 9.23692 1071.28 46.8733H1071.3Z" fill="#122130"/>
<path d="M1161.87 136.184C1170.89 136.184 1178.2 128.865 1178.2 119.837C1178.2 110.809 1170.89 103.49 1161.87 103.49C1152.85 103.49 1145.53 110.809 1145.53 119.837C1145.53 128.865 1152.85 136.184 1161.87 136.184Z" fill="#122130"/>
<path d="M1439.26 79.5672C1439.26 41.951 1411.53 22.201 1384.41 22.201C1357.29 22.201 1329.57 41.9308 1329.57 79.5672C1329.57 117.204 1357.29 136.933 1385.02 136.933C1425.07 136.933 1437.4 103.632 1437.4 103.632H1405.34C1405.34 103.632 1401.03 111.653 1385.02 111.653C1359.76 111.653 1356.67 88.2167 1356.67 88.2167H1439.24V79.5874L1439.26 79.5672ZM1357.31 68.4667C1357.31 68.4667 1361.08 45.6377 1384.43 45.6377C1407.79 45.6377 1409.69 68.4667 1409.69 68.4667H1357.31Z" fill="#122130"/>
<path d="M2.38817 133.976L0 131.525C1.2548 92.2072 17.8708 77.2377 34.6083 73.9359C51.6898 70.5531 60.3722 79.6077 70.6738 77.8656C88.5446 74.8069 89.172 46.4479 115.159 37.7782C135.62 30.9518 146.488 48.5546 164.055 43.3285C190.507 35.4487 190.507 8.30513 228.293 2.99795C229.73 2.79538 231.025 3.92974 231.025 5.38821L230.742 131.626C230.742 132.943 229.669 134.016 228.354 134.016H2.38817V133.976Z" fill="#604AFF"/>
</svg>
